<svg width="28" height="29" viewBox="0 0 28 29" fill="none" xmlns="http://www.w3.org/2000/svg">
<path d="M13.7782 0.741211C8.50494 0.741211 4.23471 4.70088 4.23471 9.59066V12.381C4.23471 13.2846 3.83348 14.6399 3.33194 15.4106L1.51208 18.2275C0.394371 19.9682 1.16817 21.9081 3.23164 22.5459C10.0812 24.6587 17.4896 24.6587 24.3392 22.5459C26.2737 21.948 27.1048 19.8486 26.0587 18.2275L24.2389 15.4106C23.7373 14.6399 23.3361 13.2713 23.3361 12.381V9.59066C23.3218 4.72745 19.0229 0.741211 13.7782 0.741211Z" fill="#FFE2C0" stroke="#292D32" stroke-width="1.5" stroke-miterlimit="10" stroke-linecap="round"/>
<path d="M18.5216 23.0908C18.5216 25.5224 16.3721 27.5155 13.7498 27.5155C12.4458 27.5155 11.2421 27.0106 10.3823 26.2134C9.52255 25.4161 8.97803 24.3 8.97803 23.0908" fill="#FFE2C0"/>
<path d="M18.5216 23.0908C18.5216 25.5224 16.3721 27.5155 13.7498 27.5155C12.4458 27.5155 11.2421 27.0106 10.3823 26.2134C9.52255 25.4161 8.97803 24.3 8.97803 23.0908" stroke="#292D32" stroke-width="1.5" stroke-miterlimit="10"/>
<path d="M13.7485 14.5432V9.91406" stroke="#292D32" stroke-width="1.5" stroke-miterlimit="10" stroke-linecap="round"/>
</svg>
